<svg xmlns="http://www.w3.org/2000/svg" width="757.04" height="478.76">
	<g id="layer7" transform="translate(-39.990182,4.76584)">
		<path id="path4539" style="stroke:#262626;stroke-dasharray:none;stroke-miterlimit:4;stroke-width:3.4000001;fill:#333333;" d="m433.81,18.562-197.56,0.25a1.2921,1.2921,0,0,0,-1.1562,0.75l-58.71,126.28-133.19-20.15a1.2921,1.2921,0,0,0,-1.4688,1.4688l29.906,189.37a1.2921,1.2921,0,0,0,0.719,0.97l125.31,58.938,45.906,85.781a1.2921,1.2921,0,0,0,1.0625,0.65625l180.22,9.4062a1.2921,1.2921,0,0,0,1.3438,-1.1875l5.9688-85.062,211-24.5a1.2921,1.2921,0,0,0,0.375,-0.0937l114.36-51.39a1.2921,1.2921,0,0,0,0.75,-0.9375l36.688-184.06a1.2921,1.2921,0,0,0,-1.4688,-1.5312l-119.91,17.375-235,8.5938-3.8438-129.69a1.2921,1.2921,0,0,0,-1.2812,-1.25z" transform="translate(-0.00458886,0.01754621)"/>
	</g>
</svg>