<svg xmlns="http://www.w3.org/2000/svg" height="26" width="60">
	<g transform="translate(-140.3392,-401.46212)">
		<path fill="#000000" d="m140.34,417.5c5.1981,3.4621,6.8614,5.5546,10.473,9.9671,3.5421-6.2002,9.2922-14.505,19.527-24.303l-1.518-1.6971c-8.8606,6.5435-14.255,12.086-18.975,17.922-3.1971-2.3534-4.6394-3.1668-8.3195-4.2304z"/>
		<path fill="#ffffff" d="m170.34,417.5c5.1981,3.4621,6.8614,5.5546,10.473,9.9671,3.5421-6.2002,9.2922-14.505,19.527-24.303l-1.518-1.6971c-8.8606,6.5435-14.255,12.086-18.975,17.922-3.1971-2.3534-4.6394-3.1668-8.3195-4.2304z"/>
	</g>
</svg>