<?xml version="1.0" encoding="UTF-8" standalone="no"?>
<!-- Created with Inkscape (http://www.inkscape.org/) -->

<svg
   xmlns:dc="http://purl.org/dc/elements/1.1/"
   xmlns:cc="http://creativecommons.org/ns#"
   xmlns:rdf="http://www.w3.org/1999/02/22-rdf-syntax-ns#"
   xmlns:svg="http://www.w3.org/2000/svg"
   xmlns="http://www.w3.org/2000/svg"
   xmlns:sodipodi="http://sodipodi.sourceforge.net/DTD/sodipodi-0.dtd"
   xmlns:inkscape="http://www.inkscape.org/namespaces/inkscape"
   id="svg2"
   version="1.1"
   inkscape:version="0.48.2 r9819"
   width="757.03882"
   height="478.75528"
   sodipodi:docname="stickers2.svg">
  <metadata
     id="metadata8">
    <rdf:RDF>
      <cc:Work
         rdf:about="">
        <dc:format>image/svg+xml</dc:format>
        <dc:type
           rdf:resource="http://purl.org/dc/dcmitype/StillImage" />
        <dc:title></dc:title>
      </cc:Work>
    </rdf:RDF>
  </metadata>
  <defs
     id="defs6">
    <filter
       inkscape:collect="always"
       id="filter4086"
       color-interpolation-filters="sRGB">
      <feGaussianBlur
         inkscape:collect="always"
         stdDeviation="16.035205"
         id="feGaussianBlur4088" />
    </filter>
  </defs>
  <sodipodi:namedview
     pagecolor="#ffffff"
     bordercolor="#666666"
     borderopacity="1"
     objecttolerance="10"
     gridtolerance="10"
     guidetolerance="10"
     inkscape:pageopacity="0"
     inkscape:pageshadow="2"
     inkscape:window-width="1366"
     inkscape:window-height="706"
     id="namedview4"
     showgrid="false"
     inkscape:zoom="0.70710678"
     inkscape:cx="388.2518"
     inkscape:cy="225.33429"
     inkscape:window-x="-8"
     inkscape:window-y="-8"
     inkscape:window-maximized="1"
     inkscape:current-layer="layer4"
     showguides="true"
     inkscape:guide-bbox="true"
     borderlayer="false"
     showborder="true"
     inkscape:showpageshadow="true"
     fit-margin-top="0"
     fit-margin-left="0"
     fit-margin-right="0"
     fit-margin-bottom="0" />
  <g
     inkscape:groupmode="layer"
     id="layer6"
     inkscape:label="background"
     style="display:none"
     transform="translate(-39.990182,4.76584)"
     sodipodi:insensitive="true">
    <rect
       style="fill:#e9ddaf;fill-opacity:1;fill-rule:nonzero;stroke:#ffffff;stroke-width:2;stroke-linecap:butt;stroke-linejoin:miter;stroke-miterlimit:4;stroke-opacity:1;stroke-dasharray:none;stroke-dashoffset:0"
       id="rect4466"
       width="970.84497"
       height="642.10339"
       x="-80.743546"
       y="-81.894669"
       rx="5.8823528"
       ry="5" />
  </g>
  <g
     inkscape:groupmode="layer"
     id="layer3"
     inkscape:label="shadow"
     style="display:inline"
     transform="translate(-39.990182,4.76584)"
     sodipodi:insensitive="true">
    <path
       style="opacity:0.8;fill:#000000;fill-opacity:1;stroke:none;filter:url(#filter4086)"
       d="m 90.09205,128.97092 26.60197,168.40773 111.77129,52.56038 40.97565,76.58798 160.25555,8.36674 5.36331,-76.58797 188.57376,-21.88228 101.6882,-45.69535 32.60883,-163.68802 -106.62246,15.44631 -210.24148,7.72316 -3.43249,-116.490946 -175.70183,0.214531 -52.56041,113.058435 z"
       id="path3768-7-1-5"
       inkscape:connector-curvature="0"
       inkscape:export-xdpi="90"
       inkscape:export-ydpi="90"
       inkscape:export-filename="C:\Workspace\pocket-cube-optimal-solver\ink\cube3.png" />
  </g>
  <g
     inkscape:groupmode="layer"
     id="layer7"
     inkscape:label="plain cube"
     style="display:inline"
     transform="translate(-39.990182,4.76584)"
     sodipodi:insensitive="true">
    <path
       transform="translate(-0.00458886,0.01754621)"
       sodipodi:type="inkscape:offset"
       inkscape:radius="1.2920057"
       inkscape:original="M 433.8125 19.84375 L 236.25 20.09375 L 177.125 147.25 L 43 126.96875 L 72.90625 316.34375 L 198.59375 375.46875 L 244.6875 461.59375 L 424.90625 471 L 430.9375 384.875 L 643 360.25 L 757.34375 308.875 L 794.03125 124.8125 L 674.125 142.1875 L 437.6875 150.84375 L 433.8125 19.84375 z "
       style="fill:#333333;stroke:#262626;stroke-width:3.4000001;stroke-miterlimit:4;stroke-opacity:1;stroke-dasharray:none;display:inline"
       id="path4539"
       d="m 433.8125,18.5625 -197.5625,0.25 a 1.2921349,1.2921349 0 0 0 -1.15625,0.75 L 176.375,145.84375 43.1875,125.6875 a 1.2921349,1.2921349 0 0 0 -1.46875,1.46875 L 71.625,316.53125 A 1.2921349,1.2921349 0 0 0 72.34375,317.5 l 125.3125,58.9375 45.90625,85.78125 a 1.2921349,1.2921349 0 0 0 1.0625,0.65625 l 180.21875,9.40625 a 1.2921349,1.2921349 0 0 0 1.34375,-1.1875 l 5.96875,-85.0625 211,-24.5 a 1.2921349,1.2921349 0 0 0 0.375,-0.0937 L 757.875,310.0625 a 1.2921349,1.2921349 0 0 0 0.75,-0.9375 l 36.6875,-184.0625 a 1.2921349,1.2921349 0 0 0 -1.46875,-1.53125 l -119.90625,17.375 -235,8.59375 -3.84375,-129.6875 a 1.2921349,1.2921349 0 0 0 -1.28125,-1.25 z"
       inkscape:export-filename="C:\Workspace\pocket-cube-optimal-solver\ink\cube3.png"
       inkscape:export-xdpi="90"
       inkscape:export-ydpi="90" />
  </g>
  <g
     inkscape:groupmode="layer"
     id="layer4"
     inkscape:label="stickers"
     style="display:inline"
     transform="translate(-39.990182,4.76584)">
    <path
       style="fill:#ffffff;stroke:none"
       d="m 444.41926,284.01807 c 2.8101,-2.93766 6.0098,-2.91754 10.1677,-3.24948 25.23006,-2.01412 50.18264,-4.00623 74.8428,-5.97484 4.1579,-0.33194 7.0275,-0.95197 9.8532,1.88679 2.8257,2.83876 1.9742,4.76939 1.651,8.59539 -1.96116,23.21585 -3.90074,46.17638 -5.8176,68.86792 -0.3232,3.826 -0.024,7.0375 -2.7516,9.8533 -2.728,2.8157 -6.167,2.5506 -10.1415,3.0136 -24.11695,2.80897 -47.96856,5.58787 -71.5409,8.3333 -3.9745,0.463 -6.2724,1.31 -9.1981,-1.3889 -2.9258,-2.6988 -2.4459,-5.1362 -2.3061,-9.0933 0.84783,-24.0109 1.68713,-47.75771 2.5157,-71.2264 0.1398,-3.957 -0.085,-6.67972 2.7254,-9.61738 z"
       id="path3811-4-6"
       inkscape:connector-curvature="0"
       sodipodi:nodetypes="zcczcczcczccz" />
    <path
       style="fill:#ffffff;stroke:none"
       d="m 333.09846,70.129194 c -2.6141,-0.72986 -1.8256,-3.26695 -1.4282,-5.2673 2.41156,-12.138002 4.79713,-24.142393 7.1541,-36.00631 0.3975,-2.00035 0.265,-2.53237 2.4502,-4.3239 2.1852,-1.79153 5.9661,-1.66845 9.5781,-1.66405 21.91725,0.02535 43.59351,0.05409 65.0158,0.0786 3.6119,0.004 6.841,-0.21962 9.0539,1.21855 2.2129,1.43818 1.8694,2.78652 1.913,4.7825 0.2664,12.111446 0.52545,24.089767 0.7862,35.92769 0.044,1.99598 0.5168,3.72101 -1.8606,5.14937 -2.3774,1.42837 -6.1146,0.83858 -10.1677,0.83858 -24.59398,4.1e-5 -48.91748,-5.5e-5 -72.956,0 -4.0531,0 -6.9246,-0.004 -9.5388,-0.73373 z"
       id="path3815-0-1"
       inkscape:connector-curvature="0"
       sodipodi:nodetypes="zcczcczcczccz" />
    <path
       style="fill:#008000;stroke:none"
       d="m 222.93096,64.861894 c 5.5123,-12.138035 10.9645,-24.142324 16.3522,-36.00631 0.9085,-2.00035 1.1111,-3.17283 3.5115,-4.71698 2.4005,-1.54415 6.2369,-1.27537 9.7485,-1.27097 21.30764,0.02535 42.38098,0.05409 63.2075,0.0786 3.5116,0.004 6.9778,-0.0437 8.5334,1.16197 1.5555,1.20568 1.0403,2.85183 0.5599,4.85218 -2.91511,12.138 -5.79857,24.1424 -8.6478,36.00631 -0.4804,2.00035 -0.2714,2.81201 -2.6272,4.66689 -2.3558,1.85487 -6.6932,1.32546 -10.6327,1.32106 -23.90488,-0.02535 -47.54694,-0.05409 -70.912,-0.0786 -3.9395,-0.004 -7.0139,0.26119 -9.0672,-0.956495 -2.0533,-1.217685 -0.9347,-3.057305 -0.0261,-5.057655 z"
       id="path3817-9-8"
       inkscape:connector-curvature="0"
       sodipodi:nodetypes="cczcczcczcccc" />
    <path
       style="fill:#ffff00;stroke:none"
       d="m 191.75746,140.65457 c -2.8105,-1.4446 -1.3068,-4.0371 -0.1271,-6.65601 7.15879,-15.89128 14.23832,-31.60807 21.2355,-47.140446 1.1797,-2.61891 1.5583,-4.29493 4.4657,-6.15198 2.9074,-1.85704 7.1279,-1.61829 11.1551,-1.57505 24.43674,0.262242 48.60471,0.521967 72.4896,0.77826 4.0272,0.0432 7.2563,-0.0132 9.4926,1.28493 2.2363,1.29811 1.2919,4.09496 0.6433,6.72005 -3.93522,15.928876 -7.82768,31.682436 -11.6739,47.251626 -0.6486,2.62509 -0.4457,3.65082 -3.3169,5.87402 -2.8713,2.2232 -7.7456,1.90245 -12.304,1.85301 -27.65994,-0.29992 -55.01573,-0.59623 -82.051,-0.88944 -4.5584,-0.0494 -7.1984,0.0956 -10.0089,-1.34897 z"
       id="path3819-4-9"
       inkscape:connector-curvature="0"
       sodipodi:nodetypes="zcczcczcczccz" />
    <path
       style="fill:#ff6600;fill-opacity:1;stroke:none"
       d="m 317.33826,134.75829 c 3.26078,-15.85387 6.48545,-31.53345 9.6727,-47.029266 0.5374,-2.61273 0.4997,-3.87986 3.1316,-6.02226 2.6319,-2.1424 6.7202,-1.8036 10.84,-1.79742 24.99892,0.03744 49.7229,0.07421 74.1573,0.111 4.1199,0.006 8.37,-0.15746 10.5065,1.76036 2.1366,1.91781 1.8531,3.58247 1.8531,6.24462 0,16.153716 0,32.129786 0,47.918706 0,2.66215 0.4538,3.96869 -2.0384,6.09638 -2.4921,2.1277 -7.2761,1.77889 -11.9333,1.7233 -28.2596,-0.33732 -56.20858,-0.67093 -83.83,-1.00062 -4.6572,-0.0556 -8.1536,0.16558 -10.8956,-1.79732 -2.742,-1.9629 -2.0013,-3.59474 -1.4639,-6.20748 z"
       id="path3821-8-2"
       inkscape:connector-curvature="0"
       sodipodi:nodetypes="cczcczcczcccc" />
    <path
       style="fill:#ff0000;stroke:none"
       d="m 53.936883,135.80789 c 12.881667,2.12043 25.621656,4.21756 38.21242,6.29011 2.12291,0.34945 3.19598,0.44265 5.32038,2.62088 2.12441,2.17823 2.13165,6.22022 2.673297,10.11659 3.28669,23.6429 6.5372,47.02576 9.74967,70.13473 0.54165,3.89637 1.34591,8.75931 0.26209,9.8545 -1.08383,1.0952 -2.85261,0.52109 -4.96034,-0.13567 -12.789573,-3.98518 -25.43846,-7.92658 -37.939207,-11.82175 -2.10773,-0.65676 -3.68316,-1.01654 -5.22243,-2.5993 -1.53926,-1.58276 -2.21442,-6.54912 -2.77125,-10.13818 -3.378787,-21.77814 -6.720392,-43.31676 -10.02289,-64.60308 -0.55682,-3.58906 -1.20861,-7.89319 0.0069,-9.19465 1.2155,-1.30146 2.56846,-0.87363 4.69137,-0.52418 z"
       id="path3823-8-7"
       inkscape:connector-curvature="0"
       sodipodi:nodetypes="cczcczcczcccc" />
    <path
       style="fill:#0000ff;stroke:none"
       d="m 109.99749,146.39624 c 1.43575,-1.0878 3.56439,-0.41934 6.21148,0 16.06233,2.54452 31.94799,5.06108 47.64759,7.54814 2.64708,0.41934 5.14622,0.82741 6.89292,2.6995 1.74668,1.87209 1.87828,7.18121 2.29328,11.49256 2.51772,26.16093 5.00865,52.03407 7.4694,77.60423 0.415,4.31135 1.343,10.01405 -0.4324,11.04701 -1.7754,1.03295 -3.5032,0.22714 -6.0935,-0.60281 -15.71774,-5.03605 -31.26266,-10.01667 -46.62545,-14.93901 -2.59031,-0.82994 -4.91945,-1.57805 -6.48668,-3.48576 -1.56722,-1.90771 -2.22775,-6.80555 -2.6995,-10.7063 -2.86261,-23.6694 -5.6937,-47.07849 -8.49165,-70.21336 -0.47176,-3.90074 -1.12125,-9.3564 0.31451,-10.4442 z"
       id="path3825-2-9"
       inkscape:connector-curvature="0"
       sodipodi:nodetypes="zcczcczcczccz" />
    <path
       style="fill:#ffff00;stroke:none"
       d="m 69.557323,236.03031 c 12.669619,4.24087 25.199903,8.43513 37.583407,12.58022 2.08796,0.6989 3.23134,0.66684 5.05829,2.88296 1.82696,2.21612 2.13165,6.2377 2.59467,9.74967 2.80957,21.3104 5.5883,42.38648 8.3344,63.21559 0.46303,3.512 1.21574,7.44 0.2883,8.4655 -0.92744,1.0254 -2.91791,0.2184 -4.92725,-0.7077 -12.19247,-5.6193 -24.251084,-11.17628 -36.168137,-16.6688 -2.00934,-0.926 -3.43124,-1.3343 -5.11071,-3.5382 -1.67948,-2.2038 -2.00061,-5.8096 -2.54226,-9.0944 -3.286679,-19.93215 -6.537208,-39.64504 -9.74967,-59.12704 -0.54164,-3.28483 -1.16164,-7.37965 -0.05241,-8.22955 1.109225,-0.84991 2.603405,-0.22715 4.691375,0.47175 z"
       id="path3827-4-5"
       inkscape:connector-curvature="0"
       sodipodi:nodetypes="cczcczcczcccc" />
    <path
       style="fill:#ff0000;stroke:none"
       d="m 123.74495,255.30506 c 1.62583,-1.00088 3.29172,-0.11351 5.85274,0.76617 15.54003,5.33789 30.90919,10.61696 46.09827,15.83433 2.561,0.87968 4.502,1.22377 6.5338,3.78832 2.0317,2.5646 1.9154,6.48412 2.2985,10.30081 2.3246,23.15941 4.62348,46.06415 6.8956,68.70056 0.3831,3.8167 0.8107,8.1779 -0.5108,9.109 -1.3214,0.931 -3.3343,0.028 -5.8315,-1.128 -15.15249,-7.01694 -30.13863,-13.95608 -44.94893,-20.8145 -2.49717,-1.1563 -4.47707,-1.7695 -6.34224,-4.3204 -1.86517,-2.5508 -2.04314,-6.2287 -2.49008,-9.7687 -2.71198,-21.4806 -5.39411,-42.7249 -8.04486,-63.72041 -0.44694,-3.54002 -1.13633,-7.74631 0.4895,-8.74718 z"
       id="path3829-5-4"
       inkscape:connector-curvature="0"
       sodipodi:nodetypes="zcczcczcczccz" />
    <path
       style="fill:#ffff00;stroke:none"
       d="m 449.02946,161.53355 c 3.1187,-3.13545 6.3423,-2.75257 10.7265,-2.91573 26.60318,-0.9901 52.91378,-1.96927 78.9162,-2.93702 4.3842,-0.16316 7.1248,-0.7349 10.1306,2.40495 3.0058,3.13985 2.3269,5.68957 1.9793,9.98158 -2.10966,26.04355 -4.19506,51.80076 -6.2572,77.25615 -0.3476,4.29201 -0.1625,7.74784 -3.1711,10.74776 -3.0085,2.99992 -6.2287,2.78094 -10.4072,3.10727 -25.35482,1.98016 -50.43077,3.93859 -75.213,5.87402 -4.1785,0.32634 -7.4927,0.90077 -9.9816,-1.31952 -2.489,-2.22029 -2.2702,-6.61182 -2.1283,-11.067 0.86101,-27.03366 1.71241,-53.77 2.554,-80.19316 0.1418,-4.45518 -0.2668,-7.80385 2.8518,-10.9393 z"
       id="path3831-5-3"
       inkscape:connector-curvature="0"
       sodipodi:nodetypes="zcczcczcczccz" />
    <path
       style="fill:#ff6600;stroke:none"
       d="m 569.61716,157.02162 c 3.029,-2.89171 5.8741,-2.65325 9.9603,-2.80932 24.79521,-0.94702 49.31773,-1.88369 73.553,-2.80932 4.0863,-0.15607 7.3611,-0.67339 9.6623,1.74518 2.3012,2.41857 1.4614,6.03009 0.8939,10.15184 -3.44399,25.01042 -6.84936,49.74588 -10.2157,74.19145 -0.5675,4.12175 -0.6464,7.64433 -3.5755,10.40723 -2.9291,2.7629 -5.8882,2.56811 -9.7687,2.87317 -23.54681,1.85103 -46.8347,3.68169 -69.8498,5.49093 -3.8805,0.30506 -7.0562,0.92102 -9.2154,-1.25567 -2.1592,-2.1767 -1.7026,-6.37062 -1.3408,-10.64135 2.19533,-25.91444 4.3667,-51.54385 6.5125,-76.87306 0.3618,-4.27073 0.355,-7.57937 3.3839,-10.47108 z"
       id="path3833-1-1"
       inkscape:connector-curvature="0"
       sodipodi:nodetypes="zcczcczcczccz" />
    <path
       style="fill:#0000ff;stroke:none"
       d="m 558.72046,274.8 c 2.7326,-2.70426 5.7605,-2.73837 9.6198,-3.04343 23.41769,-1.85101 46.57791,-3.68172 69.4667,-5.49092 3.8592,-0.30506 7.179,-0.70308 9.1941,1.12798 2.015,1.83106 1.3621,5.36323 0.8513,9.06642 -3.09949,22.47063 -6.16463,44.69421 -9.1941,66.6574 -0.5108,3.7032 -0.5222,6.8953 -3.1924,9.4921 -2.6702,2.5967 -5.718,2.4262 -9.407,2.8306 -22.3846,2.45339 -44.52289,4.88071 -66.402,7.2786 -3.689,0.4044 -7.0593,0.9965 -8.9813,-0.9151 -1.9219,-1.9117 -1.4046,-5.4768 -1.0641,-9.2793 2.06624,-23.07331 4.10993,-45.89285 6.1294,-68.4451 0.3405,-3.80251 0.247,-6.57499 2.9796,-9.27925 z"
       id="path3835-7-2"
       inkscape:connector-curvature="0"
       sodipodi:nodetypes="zcczcczcczccz" />
    <path
       style="fill:#008000;stroke:none"
       d="m 679.35076,150.59424 c 2.0546,-2.06436 3.3484,-2.07151 5.7037,-2.42623 14.2917,-2.15236 28.42616,-4.28102 42.3951,-6.38481 2.3553,-0.35471 4.1186,-0.51691 5.3207,0.97901 1.202,1.49592 0.4682,5.5335 -0.1703,9.32181 -3.8743,22.9872 -7.70575,45.72166 -11.4926,68.18974 -0.6385,3.78831 -0.8616,7.8717 -2.937,10.21568 -2.0754,2.34398 -3.6181,2.52555 -5.9379,3.21369 -14.07642,4.17559 -27.99802,8.30522 -41.7566,12.38653 -2.3198,0.68814 -3.6194,1.53867 -5.2568,0.10641 -1.6375,-1.43226 -0.4966,-6.28548 0.1064,-10.40723 3.65898,-25.01045 7.27778,-49.74582 10.8541,-74.19145 0.6031,-4.12175 1.1166,-8.93879 3.1712,-11.00315 z"
       id="path3837-1-3"
       inkscape:connector-curvature="0"
       sodipodi:nodetypes="zcczcczcczccz" />
    <path
       style="fill:#ffffff;stroke:none"
       d="m 668.12416,261.23229 c 13.96875,-4.54158 27.78398,-9.03291 41.4373,-13.47195 2.3021,-0.74844 3.8722,-1.4052 5.2462,-0.32988 1.374,1.07532 0.4824,4.9163 -0.1064,8.33217 -3.57322,20.72718 -7.10616,41.22661 -10.5988,61.48572 -0.5888,3.4158 -1.0139,6.8982 -2.8306,9.226 -1.8166,2.3279 -3.3981,2.9938 -5.6292,3.9799 -13.53844,5.98346 -26.92787,11.90151 -40.1605,17.7498 -2.2311,0.986 -3.6535,1.9555 -5.0759,1.0002 -1.4224,-0.9552 -0.5817,-5.349 -0.064,-9.0025 3.14256,-22.16932 6.25022,-44.0949 9.3218,-65.76356 0.5179,-3.65352 0.7804,-7.38662 2.7456,-9.72618 1.9652,-2.33956 3.4124,-2.73128 5.7145,-3.47972 z"
       id="path3839-1-3"
       inkscape:connector-curvature="0"
       sodipodi:nodetypes="cczcczcczcccc" />
    <path
       style="fill:#ffff00;stroke:none"
       d="m 743.75206,140.67651 c 1.6239,-1.80665 2.8094,-1.92963 4.7461,-2.23469 11.75183,-1.85102 23.37455,-3.68169 34.861,-5.49092 1.9368,-0.30506 3.0539,-0.71225 4.363,0.3618 1.3091,1.07405 0.1277,5.63282 -0.5321,9.08771 -4.00315,20.96404 -7.96306,41.69736 -11.8757,62.18801 -0.6598,3.45489 -1.1553,7.24299 -2.5752,9.2154 -1.42,1.97242 -3.2492,2.32691 -5.1717,2.91573 -11.66586,3.57286 -23.20337,7.10667 -34.6057,10.59878 -1.9225,0.58882 -2.6535,1.04616 -4.2352,0.14898 -1.5817,-0.89719 -0.2412,-5.85984 0.4043,-9.5985 3.91747,-22.68586 7.79141,-45.12229 11.6204,-67.29585 0.6456,-3.73866 1.377,-8.0898 3.0008,-9.89645 z"
       id="path3841-5-4"
       inkscape:connector-curvature="0"
       sodipodi:nodetypes="zcczcczcczccz" />
    <path
       style="fill:#008000;stroke:none"
       d="m 730.07796,241.43939 c 11.68736,-3.76658 23.24611,-7.49189 34.6695,-11.17341 1.9261,-0.62075 3.0098,-1.18615 4.0757,-0.37245 1.0658,0.8137 0.4256,4.84536 -0.2129,8.01293 -3.87435,19.22056 -7.70567,38.22977 -11.4926,57.01629 -0.6385,3.1676 -0.9051,6.5583 -2.5539,8.6089 -1.6489,2.0505 -3.0789,2.5326 -4.9376,3.352 -11.27839,4.97194 -22.43272,9.88916 -33.4564,14.7489 -1.8587,0.8194 -2.5768,1.4924 -3.8309,0.6704 -1.2541,-0.822 -0.603,-4.9447 -0.032,-8.3109 3.46501,-20.42596 6.89292,-40.62705 10.2795,-60.59179 0.5711,-3.36621 1.083,-7.23421 2.56465,-8.99193 1.48165,-1.75772 3.00085,-2.34819 4.92695,-2.96894 z"
       id="path3843-2-1"
       inkscape:connector-curvature="0"
       sodipodi:nodetypes="cczcczcczcccc" />
    <path
       style="fill:#ff0000;stroke:none"
       d="m 189.55216,159.25411 c 2.7848,-2.64509 6.1524,-2.3437 10.7422,-2.29492 29.9718,0.3187 55.9183,0.59509 82.6172,0.87892 4.5899,0.0488 7.971,-0.25155 11.1817,2.88086 3.2106,3.13241 2.8971,6.02213 3.0517,10.40039 0.9252,26.20015 1.9272,54.56666 2.7832,78.80858 0.1546,4.37826 0.8988,7.73422 -1.9775,10.59571 -2.8763,2.86149 -6.2663,2.32747 -10.6201,2.22168 -26.0541,-0.63311 -54.2624,-1.31851 -78.3692,-1.9043 -4.3538,-0.10579 -7.8374,0.16333 -11.0107,-2.80761 -3.1734,-2.97094 -2.8321,-6.15235 -3.2227,-10.47364 -2.3375,-25.85926 -4.8685,-53.85669 -7.0312,-77.7832 -0.3907,-4.32129 -0.9293,-7.87738 1.8554,-10.52247 z"
       id="path3845-7-1"
       inkscape:connector-curvature="0"
       sodipodi:nodetypes="zcczcczcczccz" />
    <path
       style="fill:#0000ff;stroke:none"
       d="m 317.62836,161.10959 c 3.1907,-3.2472 6.6691,-2.75472 11.3709,-2.69166 28.5298,0.38272 56.7458,0.7612 84.6313,1.13526 4.7018,0.0631 8.8353,-0.20888 11.6638,2.87476 2.8286,3.08363 2.2624,6.15234 2.1729,10.57129 -0.5438,26.81381 -1.0799,53.33273 -1.6114,79.54101 -0.09,4.41895 0.3977,7.77989 -2.8076,10.86426 -3.2052,3.08437 -6.4127,2.22982 -10.8886,2.14844 -27.1595,-0.49382 -54.0203,-0.9822 -80.5664,-1.46485 -4.476,-0.0814 -8.0223,0.28718 -10.9864,-2.53906 -2.964,-2.82624 -2.714,-6.50635 -2.8503,-10.90698 -0.8271,-26.70271 -1.6452,-53.11174 -2.4536,-79.21143 -0.1363,-4.40063 -0.8653,-7.07385 2.3254,-10.32104 z"
       id="path3847-6-3"
       inkscape:connector-curvature="0"
       sodipodi:nodetypes="zcczcczcczccz" />
    <path
       style="fill:#008000;stroke:none"
       d="m 199.96876,278.95048 c 2.5518,-2.45013 6.1071,-1.97553 10.4242,-1.88026 26.1958,0.5781 52.1034,1.14977 77.7076,1.7148 4.317,0.0953 7.9109,-0.31067 10.8453,2.5722 2.9344,2.88287 2.4168,5.52547 2.5722,9.43141 0.9434,23.70092 1.8757,47.14122 2.7979,70.30692 0.1554,3.9059 0.895,7.3687 -1.4591,9.6119 -2.3542,2.2432 -6.3177,1.805 -10.4393,1.6546 -25.0091,-0.9126 -49.7434,-1.8156 -74.1877,-2.7076 -4.1215,-0.1504 -7.4178,0.4309 -10.3189,-2.3165 -2.901,-2.7473 -2.7477,-5.8363 -3.0987,-9.6871 -2.1293,-23.3663 -4.2364,-46.4755 -6.3176,-69.31408 -0.351,-3.85079 -1.0777,-6.93615 1.4741,-9.38629 z"
       id="path3849-1-8"
       inkscape:connector-curvature="0"
       sodipodi:nodetypes="zcczcczccsccz" />
    <path
       style="fill:#ff0000;stroke:none"
       d="m 321.20826,282.25974 c 2.9653,-2.94375 6.1672,-2.30645 10.6046,-2.16606 26.926,0.85189 53.5557,1.69443 79.8737,2.52708 4.4374,0.14039 8.6384,0.0908 11.086,2.58725 2.4477,2.49641 2.0257,5.66586 1.9254,9.58184 -0.6085,23.7618 -1.2102,47.2622 -1.805,70.4874 -0.1003,3.9159 0.2613,7.1432 -2.3466,9.4615 -2.6079,2.3182 -6.438,2.0056 -10.6799,1.8652 -25.7394,-0.852 -51.1957,-1.6944 -76.3538,-2.5271 -4.2419,-0.1404 -7.416,0.07 -10.2888,-2.8279 -2.8728,-2.8981 -2.6274,-5.4252 -2.7226,-9.3412 -0.5777,-23.7618 -1.1501,-47.2622 -1.7148,-70.4874 -0.095,-3.91592 -0.5436,-6.21686 2.4218,-9.16061 z"
       id="path3851-4-7"
       inkscape:connector-curvature="0"
       sodipodi:nodetypes="zcczcczcczccz" />
    <path
       style="fill:#ffffff;stroke:none"
       d="m 230.98286,420.72875 c -2.3389,-1.5045 -2.7751,-2.417 -3.6621,-4.1382 -5.38235,-10.44412 -10.70605,-20.7731 -15.9668,-30.9814 -0.887,-1.7212 -1.5594,-3.6391 -0.3662,-4.3091 1.1932,-0.67 5.8024,-0.5371 9.8511,-0.3784 24.56694,0.96292 48.86366,1.91515 72.8759,2.8564 4.0487,0.1587 9.2781,0.1852 11.1451,1.5747 1.867,1.3895 1.9205,2.3763 2.3803,4.1138 2.79,10.54283 5.54942,20.96967 8.2764,31.2744 0.4598,1.7375 1.0339,3.3729 -0.2075,4.3579 -1.2415,0.985 -5.656,0.5046 -9.2774,0.3296 -21.97447,-1.06183 -43.70732,-2.11151 -65.1855,-3.1494 -3.6214,-0.175 -7.5244,-0.046 -9.8633,-1.5503 z"
       id="path3853-2-4"
       inkscape:connector-curvature="0"
       sodipodi:nodetypes="zcczcczcczccz" />
    <path
       style="fill:#0000ff;stroke:none"
       d="m 324.65966,385.47485 c -1.8175,0.6478 -1.4812,2.8483 -1.1231,4.5898 2.17257,10.56764 4.32195,21.01868 6.4453,31.3477 0.3581,1.7415 0.6415,2.7179 2.3438,4.0527 1.7022,1.3349 6.1442,1.4567 9.851,1.5991 22.49302,0.86417 44.73864,1.71895 66.7237,2.5635 3.7068,0.1424 7.3136,0.5588 9.3139,-0.6958 2.0004,-1.2546 1.9613,-2.3275 2.0386,-4.0527 0.46897,-10.4687 0.93309,-20.82236 1.3916,-31.0547 0.077,-1.7253 0.267,-3.4058 -1.5259,-4.2969 -1.7928,-0.891 -6.5266,-1.1963 -10.6689,-1.355 -25.13484,-0.96289 -49.99325,-1.91516 -74.5605,-2.8564 -4.1423,-0.1587 -8.4121,-0.4891 -10.2295,0.1587 z"
       id="path3855-3-2"
       inkscape:connector-curvature="0"
       sodipodi:nodetypes="zcczcczcczccz" />
    <path
       style="fill:#ff6600;stroke:none"
       d="m 243.67496,428.39335 c 21.58823,1.00971 42.93917,2.00801 64.0399,2.9949 3.5578,0.1664 8.2475,0.385 9.5688,1.2638 1.3213,0.8788 1.7913,1.9046 2.1347,3.2392 2.08332,8.09837 4.14476,16.10738 6.1809,24.0229 0.3434,1.3346 0.8717,2.5629 -0.4141,3.4091 -1.2859,0.8463 -4.9915,0.262 -8.2095,0.096 -19.52607,-1.00962 -38.83756,-2.00802 -57.9227,-2.9949 -3.2179,-0.1664 -7.1199,-0.278 -8.7616,-1.3063 -1.6418,-1.0283 -2.2586,-1.8621 -2.9418,-3.1967 -4.14616,-8.09811 -8.24581,-16.10766 -12.2983,-24.0229 -0.6832,-1.3346 -0.6161,-2.6411 0.5417,-3.15445 1.1578,-0.51335 4.5242,-0.51705 8.082,-0.35065 z"
       id="path3857-2-7"
       inkscape:connector-curvature="0"
       sodipodi:nodetypes="cczcczcczcccc" />
    <path
       style="fill:#ff6600;stroke:none"
       d="m 334.23356,433.20435 c -1.1563,0.6721 -1.1116,1.7771 -0.839,3.1117 1.65409,8.0983 3.28975,16.1075 4.9065,24.0229 0.2726,1.3346 0.6249,2.1097 2.0497,3.2392 1.4249,1.1295 5.3314,1.0762 8.613,1.2319 19.91278,0.94536 39.60659,1.87975 59.0697,2.8038 3.2816,0.1557 7.3153,0.5216 8.613,-0.2549 1.2977,-0.7765 1.4019,-1.9471 1.4868,-3.2817 0.51541,-8.09829 1.02576,-16.10747 1.5293,-24.0229 0.085,-1.3346 0.1353,-2.1521 -1.1894,-3.0692 -1.3247,-0.9172 -5.8341,-1.2461 -9.4733,-1.4019 -22.08239,-0.94497 -43.92182,-1.88024 -65.5055,-2.8037 -3.6392,-0.1558 -8.1045,-0.2474 -9.2608,0.4248 z"
       id="path3859-2-7"
       inkscape:connector-curvature="0"
       sodipodi:nodetypes="zcczcczcczccz" />
  </g>
</svg>
